<svg height="512pt" viewBox="0 -2 512 512" width="512pt" xmlns="http://www.w3.org/2000/svg"><path d="m325.246094 227.902344c0 29.75-24.125 53.867187-53.875 53.867187h-196.382813c-37.203125 0-67.359375-30.15625-67.359375-67.347656 0-37.203125 30.15625-67.359375 67.359375-67.359375.914063 0 1.828125.03125 2.734375.070312 11.144532-49.027343 54.996094-85.617187 107.386719-85.617187 7.300781 0 14.4375.710937 21.34375 2.074219 50.613281 9.933594 88.789063 54.535156 88.789063 108.058594 0 2.621093-.101563 5.234374-.285157 7.816406 17.9375 8.746094 30.289063 27.148437 30.289063 48.4375zm0 0" fill="#5780bc"/><path d="m325.246094 227.902344c0 29.75-24.125 53.867187-53.875 53.867187h-153.691406c-37.191407 0-67.347657-30.15625-67.347657-67.347656 0-37.203125 30.15625-67.359375 67.347657-67.359375.925781 0 1.839843.03125 2.746093.070312 9.589844-42.183593 43.394531-75.167968 86.027344-83.542968 50.613281 9.933594 88.789063 54.535156 88.789063 108.058594 0 2.621093-.101563 5.234374-.285157 7.816406 17.9375 8.746094 30.289063 27.148437 30.289063 48.4375zm0 0" fill="#769edd"/><path d="m504.375 160.535156c0 37.191406-30.15625 67.359375-67.359375 67.359375h-196.390625c-29.75 0-53.867188-24.128906-53.867188-53.878906 0-21.289063 12.351563-39.691406 30.277344-48.4375-.183594-2.582031-.285156-5.195313-.285156-7.816406 0-60.824219 49.3125-110.132813 110.132812-110.132813 8.574219 0 16.910157.976563 24.910157 2.835938 40.957031 9.464844 73.15625 41.765625 82.480469 82.78125.914062-.039063 1.816406-.070313 2.742187-.070313 37.203125 0 67.359375 30.15625 67.359375 67.359375zm0 0" fill="#5780bc"/><path d="m504.375 160.535156c0 37.191406-30.15625 67.359375-67.359375 67.359375h-146.519531c-29.75 0-53.867188-24.128906-53.867188-53.878906 0-21.289063 12.351563-39.691406 30.277344-48.4375-.183594-2.582031-.273438-5.195313-.273438-7.816406 0-52.242188 36.367188-95.980469 85.160157-107.296875 40.957031 9.464844 73.15625 41.765625 82.480469 82.78125.914062-.039063 1.816406-.070313 2.742187-.070313 37.203125 0 67.359375 30.15625 67.359375 67.359375zm0 0" fill="#769edd"/><path d="m400.207031 328.808594c-4.214843 0-7.625 3.414062-7.625 7.625v21.351562c0 4.210938 3.410157 7.625 7.625 7.625 4.210938 0 7.625-3.414062 7.625-7.625v-21.351562c0-4.210938-3.414062-7.625-7.625-7.625zm0 0"/><path d="m400.207031 382.933594c-4.214843 0-7.625 3.414062-7.625 7.625v21.351562c0 4.210938 3.410157 7.625 7.625 7.625 4.210938 0 7.625-3.414062 7.625-7.625v-21.351562c0-4.210938-3.414062-7.625-7.625-7.625zm0 0"/><path d="m437.945312 366.546875h-21.351562c-4.214844 0-7.625 3.414063-7.625 7.625s3.410156 7.625 7.625 7.625h21.351562c4.210938 0 7.625-3.414063 7.625-7.625s-3.414062-7.625-7.625-7.625zm0 0"/><path d="m383.820312 366.546875h-21.351562c-4.214844 0-7.625 3.414063-7.625 7.625s3.410156 7.625 7.625 7.625h21.351562c4.210938 0 7.625-3.414063 7.625-7.625s-3.414062-7.625-7.625-7.625zm0 0"/><path d="m149.074219 417.601562c-4.210938 0-7.625 3.414063-7.625 7.625v21.351563c0 4.210937 3.414062 7.625 7.625 7.625 4.210937 0 7.625-3.414063 7.625-7.625v-21.351563c0-4.210937-3.414063-7.625-7.625-7.625zm0 0"/><path d="m149.074219 471.726562c-4.210938 0-7.625 3.414063-7.625 7.625v21.351563c0 4.210937 3.414062 7.625 7.625 7.625 4.210937 0 7.625-3.414063 7.625-7.625v-21.351563c0-4.210937-3.414063-7.625-7.625-7.625zm0 0"/><path d="m186.8125 455.339844h-21.351562c-4.210938 0-7.625 3.414062-7.625 7.625 0 4.210937 3.414062 7.625 7.625 7.625h21.351562c4.210938 0 7.625-3.414063 7.625-7.625 0-4.210938-3.414062-7.625-7.625-7.625zm0 0"/><path d="m132.6875 455.339844h-21.351562c-4.210938 0-7.625 3.414062-7.625 7.625 0 4.210937 3.414062 7.625 7.625 7.625h21.351562c4.210938 0 7.625-3.414063 7.625-7.625 0-4.210938-3.414062-7.625-7.625-7.625zm0 0"/><path d="m440.191406 85.617188c-5.433594-19.199219-15.691406-36.71875-29.894531-50.976563-2.972656-2.984375-7.800781-2.992187-10.785156-.019531s-2.992188 7.800781-.019531 10.785156c13.632812 13.679688 23.085937 30.808594 27.34375 49.53125.816406 3.59375 4.132812 6.089844 7.773437 5.925781.800781-.035156 1.59375-.0625 2.40625-.0625 32.9375 0 59.734375 26.796875 59.734375 59.734375 0 32.933594-26.796875 59.730469-59.734375 59.730469h-196.390625c-25.5 0-46.242188-20.746094-46.242188-46.25 0-17.828125 9.960938-33.761719 25.996094-41.582031 2.796875-1.367188 4.484375-4.292969 4.261719-7.398438-.175781-2.476562-.265625-4.925781-.265625-7.277344 0-56.519531 45.984375-102.503906 102.507812-102.503906 7.855469 0 15.652344.886719 23.191407 2.636719 9.078125 2.097656 17.828125 5.4375 26.011719 9.921875 3.691406 2.023438 8.324218.671875 10.351562-3.019531 2.023438-3.695313.671875-8.328125-3.023438-10.355469-9.40625-5.15625-19.464843-8.992188-29.894531-11.402344-8.660156-2.011718-17.621093-3.035156-26.636719-3.035156-44.15625 0-82.707031 24.433594-102.859374 60.488281-12.472657-4.375-25.53125-6.597656-38.914063-6.597656-26.847656 0-53.109375 9.277344-73.949219 26.117187-18.933594 15.296876-32.746094 36.246094-39.347656 59.488282-39.882812 1.671875-71.8125 34.636718-71.8125 74.921875 0 41.347656 33.636719 74.984375 74.984375 74.984375h53.925781c4.210938 0 7.625-3.414063 7.625-7.625 0-4.210938-3.414062-7.625-7.625-7.625h-53.925781c-32.9375 0-59.734375-26.796875-59.734375-59.734375s26.796875-59.734375 59.734375-59.734375c.796875 0 1.582031.027344 2.367187.066406 3.699219.164062 6.988282-2.316406 7.808594-5.925781 5.066406-22.277344 17.703125-42.503907 35.582032-56.949219 18.136718-14.65625 40.996093-22.730469 64.367187-22.730469 11.097656 0 21.933594 1.75 32.3125 5.199219-5.351563 13.441406-8.296875 28.089844-8.296875 43.417969 0 1.117187.019531 2.25.054688 3.398437-18.65625 11.054688-30.046876 30.871094-30.046876 52.855469 0 33.914063 27.585938 61.503906 61.492188 61.503906h76.351562c-3.644531 21.886719-22.703124 38.632813-45.609374 38.632813h-111.953126c-4.210937 0-7.625 3.414062-7.625 7.625 0 4.210937 3.414063 7.625 7.625 7.625h111.949219c31.332031 0 57.25-23.554688 61.015625-53.882813h104.636719c41.347656 0 74.984375-33.640625 74.984375-74.984375 0-40.28125-31.929688-73.246094-71.808594-74.917968zm0 0"/><path d="m71.679688 382.8125c3.398437 0 6.433593-2.320312 7.347656-5.585938.816406-2.910156-.242188-6.164062-2.621094-8.023437-5.167969-4.046875-12.976562.171875-12.3125 6.730469.386719 3.851562 3.707031 6.878906 7.585938 6.878906zm0 0"/><path d="m124.316406 354c3.625 5.625 12.542969 3.714844 13.816406-2.738281.632813-3.191407-.890624-6.523438-3.722656-8.121094-2.859375-1.613281-6.515625-1.199219-8.933594 1.03125-2.714843 2.5-3.222656 6.765625-1.160156 9.828125zm0 0"/><path d="m121.367188 399.671875c-6.492188-2.742187-12.910157 4.480469-9.636719 10.628906 1.496093 2.808594 4.691406 4.414063 7.839843 3.945313 3.277344-.484375 5.945313-3.128906 6.421876-6.417969.492187-3.398437-1.414063-6.875-4.625-8.15625zm0 0"/><path d="m83.808594 445.472656c-2.578125-6.125-11.519532-6.136718-14.082032 0-2.710937 6.5 4.464844 12.914063 10.632813 9.644532 3.414063-1.8125 4.929687-6.074219 3.449219-9.644532zm0 0"/><path d="m171.085938 384.5c3.75 5.683594 12.902343 3.636719 13.878906-3.109375.457031-3.152344-1.132813-6.34375-3.949219-7.839844-2.886719-1.53125-6.515625-1.039062-8.878906 1.226563-2.621094 2.515625-3.085938 6.703125-1.050781 9.722656zm0 0"/><path d="m219.035156 426.15625c-2.613281-6.207031-11.71875-6.128906-14.148437.175781-1.21875 3.148438-.164063 6.84375 2.554687 8.855469 2.410156 1.785156 5.703125 1.984375 8.316406.515625 3.34375-1.886719 4.65625-6.011719 3.277344-9.546875zm0 0"/><path d="m248.519531 366.167969c-1.234375-2.929688-4.226562-4.859375-7.417969-4.699219-3.046874.15625-5.773437 2.179688-6.800781 5.046875-1.042969 2.925781-.171875 6.320313 2.195313 8.34375 2.523437 2.15625 6.242187 2.445313 9.058594.671875 3.121093-1.96875 4.320312-5.964844 2.964843-9.363281zm0 0"/><path d="m272.921875 458.691406c-1.210937-2.875-4.101563-4.785156-7.230469-4.703125-3.054687.078125-5.824218 2.027344-6.917968 4.875-1.113282 2.898438-.339844 6.3125 1.984374 8.398438 2.429688 2.183593 6.03125 2.574219 8.878907.980469 3.339843-1.871094 4.691406-6.027344 3.285156-9.550782zm0 0"/><path d="m301.390625 397.6875c-1.335937-3.167969-4.734375-5.15625-8.160156-4.625-3.238281.503906-5.8125 3.015625-6.390625 6.242188-1.175782 6.519531 6.382812 11.285156 11.808594 7.59375 2.941406-2.003907 4.105468-5.921876 2.742187-9.210938zm0 0"/><path d="m328.84375 333.632812c-1.234375-2.929687-4.226562-4.863281-7.421875-4.699218-3.042969.15625-5.773437 2.179687-6.796875 5.050781-1.042969 2.925781-.175781 6.316406 2.191406 8.339844 2.523438 2.15625 6.246094 2.445312 9.058594.671875 3.097656-1.953125 4.367188-5.984375 2.96875-9.363282zm0 0"/><path d="m393.324219 300.425781c1.382812-6.738281-6.609375-11.679687-12.070313-7.570312-2.46875 1.859375-3.578125 5.140625-2.746094 8.113281.910157 3.261719 3.949219 5.585938 7.34375 5.589844 3.558594 0 6.8125-2.613282 7.472657-6.132813zm0 0"/><path d="m452.488281 336.195312c-3.265625.613282-5.769531 3.441407-6.105469 6.726563-.34375 3.359375 1.699219 6.65625 4.847657 7.855469 6.34375 2.425781 12.558593-4.351563 9.589843-10.457032-1.484374-3.054687-4.992187-4.8125-8.332031-4.125zm0 0"/><path d="m356.292969 425.136719c-2.605469-6.1875-11.730469-6.140625-14.148438.175781-1.207031 3.15625-.167969 6.84375 2.554688 8.859375 2.410156 1.785156 5.707031 1.984375 8.316406.511719 3.300781-1.859375 4.726563-6.042969 3.277344-9.546875zm0 0"/><path d="m439.667969 458.691406c-1.199219-2.84375-4.039063-4.722656-7.128907-4.699218-3.226562.027343-6.136718 2.171874-7.148437 5.226562-1.027344 3.105469.097656 6.636719 2.753906 8.558594 2.589844 1.875 6.140625 1.914062 8.777344.125 2.929687-1.988282 4.128906-5.9375 2.746094-9.210938zm0 0"/></svg>